<mxfile host="65bd71144e">
    <diagram id="Bw7fBSQwyuvwX_eZTn5h" name="2022-07-11">
        <mxGraphModel dx="8844" dy="6940" grid="1" gridSize="10" guides="1" tooltips="1" connect="1" arrows="1" fold="1" page="1" pageScale="1" pageWidth="827" pageHeight="1169" math="0" shadow="0">
            <root>
                <mxCell id="0"/>
                <mxCell id="1" parent="0"/>
                <mxCell id="424" value="" style="edgeStyle=none;html=1;strokeColor=default;opacity=80;" edge="1" parent="1" source="418" target="423">
                    <mxGeometry relative="1" as="geometry"/>
                </mxCell>
                <mxCell id="418" value="&lt;span style=&quot;text-align: left&quot;&gt;$薬局&lt;/span&gt;&lt;br&gt;$審査支払機関&lt;br&gt;&lt;span style=&quot;text-align: left&quot;&gt;$請求年月&lt;br&gt;&lt;/span&gt;" style="shape=parallelogram;perimeter=parallelogramPerimeter;whiteSpace=wrap;html=1;fixedSize=1;strokeWidth=2;shadow=0;sketch=0;rounded=1;" vertex="1" parent="1">
                    <mxGeometry x="-1300" y="350" width="120" height="60" as="geometry"/>
                </mxCell>
                <mxCell id="422" value="&lt;div style=&quot;&quot;&gt;&lt;span&gt;請求ファイル作成&lt;br&gt;&lt;br&gt;&lt;/span&gt;&lt;/div&gt;" style="shape=note;whiteSpace=wrap;html=1;backgroundOutline=1;darkOpacity=0.05;align=left;verticalAlign=top;" vertex="1" parent="1">
                    <mxGeometry x="-1160" y="350" width="160" height="80" as="geometry"/>
                </mxCell>
                <mxCell id="426" value="" style="edgeStyle=none;html=1;strokeColor=default;opacity=80;" edge="1" parent="1" source="423" target="425">
                    <mxGeometry relative="1" as="geometry"/>
                </mxCell>
                <mxCell id="423" value="薬局情報作成" style="shape=process;whiteSpace=wrap;html=1;backgroundOutline=1;strokeWidth=2;shadow=0;sketch=0;rounded=1;" vertex="1" parent="1">
                    <mxGeometry x="-1300" y="470" width="120" height="60" as="geometry"/>
                </mxCell>
                <mxCell id="428" value="" style="edgeStyle=none;html=1;strokeColor=default;opacity=80;" edge="1" parent="1" source="425" target="427">
                    <mxGeometry relative="1" as="geometry"/>
                </mxCell>
                <mxCell id="425" value="" style="shape=trapezoid;perimeter=trapezoidPerimeter;whiteSpace=wrap;html=1;fixedSize=1;strokeWidth=2;shadow=0;sketch=0;rounded=1;" vertex="1" parent="1">
                    <mxGeometry x="-1300" y="590" width="120" height="60" as="geometry"/>
                </mxCell>
                <mxCell id="430" value="" style="edgeStyle=none;html=1;strokeColor=default;opacity=80;" edge="1" parent="1" source="427" target="429">
                    <mxGeometry relative="1" as="geometry"/>
                </mxCell>
                <mxCell id="427" value="レセプト作成" style="shape=process;whiteSpace=wrap;html=1;backgroundOutline=1;strokeWidth=2;shadow=0;sketch=0;rounded=1;" vertex="1" parent="1">
                    <mxGeometry x="-1300" y="710" width="120" height="60" as="geometry"/>
                </mxCell>
                <mxCell id="434" value="" style="edgeStyle=none;html=1;strokeColor=default;opacity=80;" edge="1" parent="1" source="429" target="433">
                    <mxGeometry relative="1" as="geometry"/>
                </mxCell>
                <mxCell id="429" value="" style="shape=trapezoid;perimeter=trapezoidPerimeter;whiteSpace=wrap;html=1;fixedSize=1;strokeWidth=2;shadow=0;sketch=0;rounded=1;direction=west;" vertex="1" parent="1">
                    <mxGeometry x="-1300" y="830" width="120" height="60" as="geometry"/>
                </mxCell>
                <mxCell id="438" value="" style="edgeStyle=none;html=1;strokeColor=default;opacity=80;" edge="1" parent="1" source="433" target="437">
                    <mxGeometry relative="1" as="geometry"/>
                </mxCell>
                <mxCell id="433" value="調剤報酬請求書&lt;br&gt;情報作成" style="shape=process;whiteSpace=wrap;html=1;backgroundOutline=1;strokeWidth=2;shadow=0;sketch=0;rounded=1;" vertex="1" parent="1">
                    <mxGeometry x="-1300" y="950" width="120" height="60" as="geometry"/>
                </mxCell>
                <mxCell id="440" value="" style="edgeStyle=none;html=1;strokeColor=default;opacity=80;" edge="1" parent="1" source="437" target="439">
                    <mxGeometry relative="1" as="geometry"/>
                </mxCell>
                <mxCell id="437" value="請求ファイル&lt;br&gt;作成" style="shape=process;whiteSpace=wrap;html=1;backgroundOutline=1;strokeWidth=2;shadow=0;sketch=0;rounded=1;" vertex="1" parent="1">
                    <mxGeometry x="-1300" y="1070" width="120" height="60" as="geometry"/>
                </mxCell>
                <mxCell id="439" value="請求ファイル" style="shape=parallelogram;perimeter=parallelogramPerimeter;whiteSpace=wrap;html=1;fixedSize=1;strokeWidth=2;shadow=0;sketch=0;rounded=1;" vertex="1" parent="1">
                    <mxGeometry x="-1300" y="1190" width="120" height="60" as="geometry"/>
                </mxCell>
            </root>
        </mxGraphModel>
    </diagram>
</mxfile>